# xmcd
#
# Track frame offsets:
# 150
# 15254
# 31737
# 49478
# 66953
# 81981
# 98756
# 112477
# 127746
# 142023
# 157325
# 170918
#
# Disc length: 2565 seconds
#
#
# Revision: 3
# Processed by: cddbd v1.5.1PL2 Copyright (c) Steve Scherf et al.
# Submitted via: FreeRIP 2.943 
#
DISCID=ab0a030c
DTITLE=Ricky Van Shelton - Fried Green Tomatoes
DYEAR=2000
DGENRE=Country
TTITLE0=Call Me Crazy
TTITLE1=Foolish Pride
TTITLE2=I'm The One
TTITLE3=Somebody's Gonna Lose
TTITLE4=I Think I Like It Here
TTITLE5=You Go Your Way (And I'll Go Crazy)
TTITLE6=Who's Laughin' Now
TTITLE7=All I Have To Offer You Is Me
TTITLE8=From The Fryin' Pan
TTITLE9=I Was Losing You
TTITLE10=Your One And Only
TTITLE11=The Decision
EXTD=
EXTT0=
EXTT1=
EXTT2=
EXTT3=
EXTT4=
EXTT5=
EXTT6=
EXTT7=
EXTT8=
EXTT9=
EXTT10=
EXTT11=
PLAYORDER=
